<?xml version="1.0" standalone="no"?>
<!DOCTYPE svg PUBLIC "-//W3C//DTD SVG 20010904//EN"
 "http://www.w3.org/TR/2001/REC-SVG-20010904/DTD/svg10.dtd">
<svg version="1.0" xmlns="http://www.w3.org/2000/svg"
 width="512.000000pt" height="512.000000pt" viewBox="0 0 512.000000 512.000000"
 preserveAspectRatio="xMidYMid meet">
<metadata>
Created by potrace 1.11, written by Peter Selinger 2001-2013
</metadata>
<g transform="translate(0.000000,512.000000) scale(0.100000,-0.100000)"
fill="#000000" stroke="none">
<path d="M2395 5109 c-523 -37 -1010 -226 -1425 -555 -47 -37 -144 -126 -215
-198 -982 -986 -991 -2575 -20 -3575 213 -219 430 -378 700 -511 194 -96 312
-140 509 -190 226 -57 372 -75 626 -75 350 0 639 55 950 180 859 345 1465
1130 1586 2055 23 182 15 576 -15 749 -95 527 -342 1002 -716 1376 -522 522
-1251 796 -1980 744z m160 -623 c13 -13 29 -43 35 -67 7 -24 14 -50 17 -58 2
-10 18 -1 51 31 66 63 91 78 133 78 66 0 92 -67 54 -140 l-17 -33 24 7 c12 4
57 10 99 13 61 4 83 2 113 -12 75 -36 85 -118 22 -191 l-33 -38 63 -37 c335
-196 535 -540 536 -924 1 -190 -42 -367 -125 -519 l-34 -62 61 -39 c80 -52
211 -183 266 -268 24 -37 50 -67 57 -67 36 0 127 -46 167 -85 85 -82 127 -200
127 -360 0 -168 -40 -274 -144 -383 -58 -60 -133 -111 -187 -127 -13 -4 -44
-27 -68 -52 -168 -168 -442 -274 -837 -324 -130 -17 -579 -17 -710 0 -394 49
-678 161 -842 330 -21 21 -49 42 -63 46 -123 37 -263 185 -309 327 -20 60 -29
178 -20 258 21 192 107 314 253 359 50 15 59 23 98 81 55 83 186 214 264 265
l61 39 -33 60 c-159 291 -171 663 -29 963 62 131 134 231 240 331 147 139 321
231 507 268 58 12 87 22 84 30 -11 28 -18 157 -11 208 12 100 76 146 130 92z"/>
<path d="M1898 3290 c-73 -22 -131 -104 -144 -207 -6 -47 -4 -52 20 -68 24
-16 28 -16 51 -1 14 9 25 23 25 31 0 9 10 36 21 61 48 101 131 87 186 -31 10
-22 26 -41 36 -43 71 -14 59 125 -18 204 -53 55 -113 73 -177 54z"/>
<path d="M3156 3286 c-77 -29 -136 -116 -136 -202 0 -66 54 -72 83 -9 57 121
140 133 186 26 11 -27 21 -54 21 -60 0 -6 11 -18 25 -27 23 -15 27 -15 51 1
24 16 26 21 20 68 -20 154 -133 246 -250 203z"/>
<path d="M2040 2659 c0 -50 150 -142 285 -176 102 -25 400 -25 508 0 136 32
287 124 287 176 0 17 -3 17 -52 4 -69 -18 -256 -20 -385 -3 -86 11 -120 11
-206 0 -129 -17 -316 -15 -384 3 -50 13 -53 13 -53 -4z"/>
</g>
</svg>
